<?xml version="1.0" encoding="UTF-8"?>
<svg width="1200pt" height="1200pt" version="1.1" viewBox="0 0 1200 1200" xmlns="http://www.w3.org/2000/svg">
 <path d="m1095.9 495.66-308.86-82.781-82.781-308.86c-15.422-57.609-74.672-91.781-132.28-76.359-37.266 9.9844-66.375 39.094-76.359 76.359l-82.734 308.86-308.86 82.781c-57.609 15.422-91.781 74.672-76.359 132.28 9.9844 37.266 39.094 66.375 76.359 76.359l308.86 82.781 82.781 308.86c15.422 57.609 74.672 91.781 132.28 76.359 37.266-9.9844 66.375-39.094 76.359-76.359l82.781-308.86 308.86-82.781c57.609-15.422 91.781-74.672 76.359-132.28-9.9844-37.266-39.094-66.375-76.359-76.359zm-18.609 139.13-328.97 88.078c-12.422 3.3281-22.125 13.031-25.453 25.453l-88.125 328.92c-5.1094 19.219-24.797 30.656-44.016 25.594-12.516-3.3281-22.266-13.078-25.594-25.594l-88.125-328.92c-3.3281-12.422-13.031-22.125-25.453-25.453l-328.92-88.125c-19.219-5.1094-30.656-24.797-25.594-44.016 3.3281-12.516 13.078-22.266 25.594-25.594l328.92-88.125c12.422-3.3281 22.125-13.031 25.453-25.453l88.125-328.92c5.1094-19.219 24.797-30.656 44.016-25.594 12.516 3.3281 22.266 13.078 25.594 25.594l88.125 328.92c3.3281 12.422 13.031 22.125 25.453 25.453l328.92 88.125c19.219 5.1094 30.656 24.797 25.594 44.016-3.2812 12.562-13.031 22.312-25.547 25.641z"/>
</svg>
