<?xml version="1.0" encoding="UTF-8"?>
<svg width="1200pt" height="1200pt" version="1.1" viewBox="0 0 1200 1200" xmlns="http://www.w3.org/2000/svg">
 <path d="m1140 564h-260.68c46.922-26.156 90-58.688 127.97-96.703 108.38-107.77 169.13-254.44 168.71-407.29 0-19.875-16.125-36-36-36h-1080c-19.875 0-36 16.125-36 36-0.42188 152.86 60.328 299.53 168.71 407.29 37.969 38.016 81.047 70.594 127.97 96.703h-260.68c-19.875 0-36 16.125-36 36 0 318.14 257.9 576 576 576 152.76 0 299.26-60.703 407.29-168.71 108.38-107.77 169.13-254.44 168.71-407.29 0-19.875-16.125-36-36-36zm-1042.7-468h1005.5c-19.781 277.64-260.86 486.71-538.5 466.92-250.18-17.766-449.16-216.79-466.97-466.92zm502.74 1008c-264.24-0.32812-483.52-204.42-502.74-468h1005.5c-19.219 263.58-238.5 467.68-502.74 468z"/>
</svg>
