<?xml version="1.0" encoding="UTF-8"?>
<svg width="1200pt" height="1200pt" version="1.1" viewBox="0 0 1200 1200" xmlns="http://www.w3.org/2000/svg">
 <path d="m996 780c-0.046875-129.05-62.953-249.94-168.56-324h132.56c19.875 0 36-16.125 36-36 0-218.72-177.28-396-396-396s-396 177.28-396 396c0 19.875 16.125 36 36 36h132.56c-105.61 74.062-168.52 194.95-168.56 324 0 19.875 16.125 36 36 36h132.56c-105.61 74.062-168.52 194.95-168.56 324 0 19.875 16.125 36 36 36h720c19.875 0 36-16.125 36-36-0.046875-129.05-62.953-249.94-168.56-324h132.56c19.875 0 36-16.125 36-36zm-718.03-396c19.828-177.84 180.05-305.95 357.89-286.13 150.56 16.781 269.39 135.56 286.18 286.13zm644.06 720h-644.06c19.828-177.84 180.05-305.95 357.89-286.13 150.56 16.781 269.39 135.56 286.18 286.13zm-644.06-360c19.828-177.84 180.05-305.95 357.89-286.13 150.56 16.781 269.39 135.56 286.18 286.13z"/>
</svg>
