<?xml version="1.0" encoding="UTF-8"?>
<svg width="1200pt" height="1200pt" version="1.1" viewBox="0 0 1200 1200" xmlns="http://www.w3.org/2000/svg">
 <path d="m1095.9 495.71-148.22-39.703 76.734-132.89c29.812-51.656 12.141-117.7-39.516-147.56-33.422-19.312-74.578-19.312-108 0l-132.94 76.734-39.703-148.22c-15.422-57.609-74.672-91.781-132.28-76.359-37.266 9.9844-66.375 39.094-76.359 76.359l-39.656 148.22-132.94-76.734c-51.656-29.812-117.7-12.094-147.52 39.609-19.266 33.375-19.266 74.531 0 107.91l76.734 132.94-148.22 39.703c-57.609 15.422-91.781 74.672-76.359 132.28 9.9844 37.266 39.094 66.375 76.359 76.359l148.22 39.656-76.734 132.94c-29.812 51.656-12.094 117.7 39.609 147.52 33.375 19.266 74.531 19.266 107.91 0l132.94-76.734 39.703 148.22c15.422 57.609 74.672 91.781 132.28 76.359 37.266-9.9844 66.375-39.094 76.359-76.359l39.656-148.22 132.89 76.734c51.656 29.812 117.7 12.141 147.56-39.516 19.312-33.422 19.312-74.578 0-108l-76.734-132.94 148.22-39.703c57.609-15.422 91.781-74.672 76.359-132.28-9.9844-37.266-39.094-66.375-76.359-76.359zm-18.609 139.08-193.55 51.844c-19.219 5.1562-30.609 24.891-25.453 44.062 0.79688 3.0469 2.0156 6 3.6094 8.7188l100.17 173.53c9.9844 17.203 4.125 39.234-13.078 49.219-11.156 6.4688-24.938 6.4688-36.094 0l-173.48-100.27c-17.203-9.9375-39.234-4.0781-49.172 13.125-1.5938 2.7188-2.8125 5.6719-3.6094 8.7188l-51.891 193.6c-5.1562 19.219-24.891 30.562-44.109 25.406-12.375-3.3281-22.078-13.031-25.406-25.406l-51.891-193.55c-5.1562-19.219-24.891-30.609-44.062-25.453-3.0469 0.79687-6 2.0156-8.7188 3.6094l-173.53 100.17c-17.203 9.9844-39.234 4.125-49.219-13.078-6.4688-11.156-6.4688-24.938 0-36.094l100.17-173.53c9.9375-17.203 4.0781-39.234-13.125-49.172-2.7188-1.5938-5.6719-2.8125-8.7188-3.6094l-193.5-51.844c-19.219-5.1562-30.562-24.891-25.406-44.109 3.3281-12.375 13.031-22.078 25.406-25.406l193.55-51.844c19.219-5.1562 30.609-24.891 25.453-44.062-0.79688-3.0469-2.0156-6-3.6094-8.7188l-100.17-173.53c-9.9844-17.203-4.125-39.234 13.078-49.219 11.156-6.4688 24.938-6.4688 36.094 0l173.53 100.17c17.203 9.9375 39.234 4.0781 49.172-13.125 1.5938-2.7188 2.8125-5.6719 3.6094-8.7188l51.844-193.55c5.1562-19.219 24.891-30.562 44.109-25.406 12.375 3.3281 22.078 13.031 25.406 25.406l51.844 193.55c5.1562 19.219 24.891 30.609 44.062 25.453 3.0469-0.79688 6-2.0156 8.7188-3.6094l173.53-100.17c17.203-9.9844 39.234-4.125 49.219 13.078 6.4688 11.156 6.4688 24.938 0 36.094l-100.22 173.48c-9.9375 17.203-4.0781 39.234 13.125 49.172 2.7188 1.5938 5.6719 2.8125 8.7188 3.6094l193.6 51.891c19.219 5.1562 30.562 24.891 25.406 44.109-3.3281 12.375-13.031 22.078-25.406 25.406z"/>
</svg>
