<svg width="38" height="38" viewBox="0 0 38 38" fill="none" xmlns="http://www.w3.org/2000/svg">
<g clip-path="url(#clip0_25400_136)">
<path d="M28.1875 33.25C32.7709 33.1566 36.4563 29.4077 36.4563 24.799C36.4563 22.5576 35.5665 20.408 33.9826 18.8232L19.9188 4.75V13.4974C19.9188 14.9603 20.4995 16.3634 21.5334 17.3979L24.8279 20.6946L24.8369 20.7034L30.361 26.2312C30.5404 26.4106 30.5404 26.7017 30.361 26.8812C30.1816 27.0607 29.8907 27.0607 29.7114 26.8812L27.8072 24.9758H10.1928L8.28868 26.8812C8.10928 27.0607 7.81842 27.0607 7.63903 26.8812C7.45963 26.7017 7.45963 26.4106 7.63902 26.2312L13.1631 20.7034L13.1721 20.6946L16.4666 17.3979C17.5005 16.3634 18.0812 14.9603 18.0812 13.4974V4.75L4.01738 18.8232C2.43355 20.408 1.54376 22.5576 1.54376 24.799C1.54376 29.4077 5.22918 33.1566 9.81254 33.25H28.1875Z" fill="#FF0A0A"/>
</g>
<defs>
<clipPath id="clip0_25400_136">
<rect width="34.9125" height="28.5" fill="white" transform="translate(1.54376 4.75)"/>
</clipPath>
</defs>
</svg>
