<svg width="20" height="20" viewBox="0 0 20 20" fill="none" xmlns="http://www.w3.org/2000/svg">
<path fill-rule="evenodd" clip-rule="evenodd" d="M13.9307 1.07129C16.6911 1.07129 18.9286 3.31058 18.9286 6.06915V13.9306C18.9286 16.6909 16.6893 18.9284 13.9307 18.9284H6.06927C3.30891 18.9284 1.07141 16.6892 1.07141 13.9306V6.06915C1.07141 3.30879 3.3107 1.07129 6.06927 1.07129H13.9307ZM9.99998 5.357C7.4357 5.357 5.35713 7.43558 5.35713 9.99986C5.35713 12.5641 7.4357 14.6427 9.99998 14.6427C12.5643 14.6427 14.6428 12.5641 14.6428 9.99986C14.6428 7.43558 12.5643 5.357 9.99998 5.357ZM9.99998 6.78558C10.4221 6.78558 10.8401 6.86872 11.23 7.03025C11.62 7.19178 11.9744 7.42855 12.2728 7.72702C12.5713 8.02549 12.8081 8.37983 12.9696 8.76981C13.1311 9.15978 13.2143 9.57776 13.2143 9.99986C13.2143 10.422 13.1311 10.8399 12.9696 11.2299C12.8081 11.6199 12.5713 11.9742 12.2728 12.2727C11.9744 12.5712 11.62 12.8079 11.23 12.9695C10.8401 13.131 10.4221 13.2141 9.99998 13.2141C9.1475 13.2141 8.32994 12.8755 7.72714 12.2727C7.12435 11.6699 6.7857 10.8523 6.7857 9.99986C6.7857 9.14738 7.12435 8.32981 7.72714 7.72702C8.32994 7.12422 9.1475 6.78558 9.99998 6.78558ZM15.1786 3.57129C14.847 3.57129 14.5291 3.70299 14.2947 3.93741C14.0603 4.17183 13.9286 4.48977 13.9286 4.82129C13.9286 5.15281 14.0603 5.47075 14.2947 5.70517C14.5291 5.93959 14.847 6.07129 15.1786 6.07129C15.5101 6.07129 15.828 5.93959 16.0624 5.70517C16.2969 5.47075 16.4286 5.15281 16.4286 4.82129C16.4286 4.48977 16.2969 4.17183 16.0624 3.93741C15.828 3.70299 15.5101 3.57129 15.1786 3.57129Z" fill="#CCCCCC"/>
</svg>
