<svg width="20" height="20" viewBox="0 0 20 20" fill="none" xmlns="http://www.w3.org/2000/svg">
<g clip-path="url(#clip0_25444_951)">
<path fill-rule="evenodd" clip-rule="evenodd" d="M4.16671 0.833496C3.28265 0.833496 2.43481 1.18469 1.80968 1.80981C1.18456 2.43493 0.833374 3.28277 0.833374 4.16683V15.8335C0.833374 16.7176 1.18456 17.5654 1.80968 18.1905C2.43481 18.8156 3.28265 19.1668 4.16671 19.1668H15.8334C16.7174 19.1668 17.5653 18.8156 18.1904 18.1905C18.8155 17.5654 19.1667 16.7176 19.1667 15.8335V4.16683C19.1667 3.28277 18.8155 2.43493 18.1904 1.80981C17.5653 1.18469 16.7174 0.833496 15.8334 0.833496H4.16671ZM3.88837 3.75016C3.79715 3.78406 3.7151 3.8388 3.64877 3.91001C3.58244 3.98122 3.53365 4.06694 3.50629 4.16034C3.47894 4.25373 3.47377 4.35223 3.4912 4.44797C3.50864 4.54372 3.54819 4.63407 3.60671 4.71183L8.28504 10.9202L3.35587 16.2077L3.31921 16.2502H5.02504L9.05004 11.9343L12.1434 16.041C12.2151 16.1361 12.3126 16.2086 12.4242 16.2502H16.1092C16.2003 16.2161 16.2822 16.1612 16.3483 16.0899C16.4145 16.0186 16.4631 15.9329 16.4903 15.8395C16.5175 15.7461 16.5225 15.6477 16.5049 15.5521C16.4874 15.4564 16.4478 15.3661 16.3892 15.2885L11.7109 9.08016L16.6809 3.75016H14.9725L10.9475 8.06683L7.85254 3.96016C7.78089 3.8648 7.68344 3.79193 7.57171 3.75016H3.88837ZM12.955 15.0402L5.35921 4.96016H7.04171L14.6367 15.0393L12.955 15.0402Z" fill="#CCCCCC"/>
</g>
<defs>
<clipPath id="clip0_25444_951">
<rect width="20" height="20" fill="white"/>
</clipPath>
</defs>
</svg>
